<svg width="25" height="25" viewBox="0 0 25 25" fill="none" xmlns="http://www.w3.org/2000/svg">
<g clip-path="url(#clip0_4133_5348)">
<path fill-rule="evenodd" clip-rule="evenodd" d="M12.5 23.1215C18.368 23.1215 23.125 18.3645 23.125 12.4965C23.125 6.62843 18.368 1.87146 12.5 1.87146C6.63197 1.87146 1.875 6.62843 1.875 12.4965C1.875 18.3645 6.63197 23.1215 12.5 23.1215ZM12.5 24.9965C19.4036 24.9965 25 19.4 25 12.4965C25 5.5929 19.4036 -0.00354004 12.5 -0.00354004C5.59644 -0.00354004 0 5.5929 0 12.4965C0 19.4 5.59644 24.9965 12.5 24.9965Z" fill="#0A4842"/>
<path fill-rule="evenodd" clip-rule="evenodd" d="M12.5 5.93385C11.3485 5.93385 10.3565 6.62605 9.92146 7.62092C9.71402 8.09531 9.16128 8.31172 8.68689 8.10428C8.21249 7.89683 7.99609 7.34409 8.20353 6.8697C8.9263 5.21682 10.5769 4.05885 12.5 4.05885C15.0888 4.05885 17.1875 6.15751 17.1875 8.74635C17.1875 11.0141 15.5771 12.9058 13.4375 13.3401V14.9963C13.4375 15.5141 13.0178 15.9338 12.5 15.9338C11.9822 15.9338 11.5625 15.5141 11.5625 14.9963V12.4963C11.5625 11.9786 11.9822 11.5588 12.5 11.5588C14.0533 11.5588 15.3125 10.2996 15.3125 8.74635C15.3125 7.19305 14.0533 5.93385 12.5 5.93385Z" fill="#0A4842"/>
<path d="M13.75 18.7463C13.75 19.4367 13.1904 19.9963 12.5 19.9963C11.8096 19.9963 11.25 19.4367 11.25 18.7463C11.25 18.056 11.8096 17.4963 12.5 17.4963C13.1904 17.4963 13.75 18.056 13.75 18.7463Z" fill="#0A4842"/>
</g>
<defs>
<clipPath id="clip0_4133_5348">
<rect width="25" height="25" fill="white"/>
</clipPath>
</defs>
</svg>
